<svg xmlns="http://www.w3.org/2000/svg" fill="#D9B282" data-name="Layer 1" viewBox="0 0 100 100"><g fill-rule="evenodd"><path d="M31 34h38a1 1 0 0 0 1-1v-4a1 1 0 0 0-1-1H31a1 1 0 0 0-1 1v4a1 1 0 0 0 1 1m41 6H28a4 4 0 0 1-4-4V26a4 4 0 0 1 4-4h44a4 4 0 0 1 4 4v10a4 4 0 0 1-4 4M31 72h38a1 1 0 0 0 1-1v-4a1 1 0 0 0-1-1H31a1 1 0 0 0-1 1v4a1 1 0 0 0 1 1m41 6H28a4 4 0 0 1-4-4V64a4 4 0 0 1 4-4h44a4 4 0 0 1 4 4v10a4 4 0 0 1-4 4M77 54H67a3 3 0 0 1-3-3v-2a3 3 0 0 1 3-3h10a3 3 0 0 1 3 3v2a3 3 0 0 1-3 3M55 54H45a3 3 0 0 1-3-3v-2a3 3 0 0 1 3-3h10a3 3 0 0 1 3 3v2a3 3 0 0 1-3 3M33 54H23a3 3 0 0 1-3-3v-2a3 3 0 0 1 3-3h10a3 3 0 0 1 3 3v2a3 3 0 0 1-3 3"/></g></svg>